# xmcd
#
# Track frame offsets:
#	150
#	19352
#	33002
#	49427
#	61802
#	78179
#	92878
#	105853
#	119858
#	136628
#	163660
#	183083
#	200299
#	224824
#	238324
#	252392
#	268797
#	282582
#	296484
#	318209
#
# Disc length: 4386
#
# Revision: 2
# Processed by: cddbd v1.5.1PL0 Copyright (c) Steve Scherf et al.
# Submitted via: EasyCDDAExtractor 6.2.0.3
# Normalized: r1:DSETVAR1
#
DISCID=2a112014
DTITLE=Various Artist - Line Dancing Collection No2
DYEAR=1900
DGENRE=Country
TTITLE0=Dallas Wayne - Stone By Stone
TTITLE1=George Jones - Billy B Bad
TTITLE2=Baker and Myers - A Little Bit Of Honey
TTITLE3=Daryle Singletary - Too Much Fun
TTITLE4=The Mavericks - All That Heaven Will Allow
TTITLE5=Jim Rast and Knee Deep - Cripple Creek
TTITLE6=Dean Miller - Wake Up And Smell The Whiskey
TTITLE7=Shane Minor - Slave To The Habit
TTITLE8=Nitty Gritty Dirt Band - Bang Bang Bang
TTITLE9=Alabama - Dancin' Shaggin On The Boulevard
TTITLE10=Twister Alley - Dance
TTITLE11=Kimber Clayton - Jose Cuervo
TTITLE12=Kimber Clayton - Addicted To Love
TTITLE13=Scooter Lee - Twisting The Night Away
TTITLE14=Jeff Moore - Wrangler Butts
TTITLE15=Lacy J Dalton - Black Coffee
TTITLE16=Lee Ann Womack - Buckaroo
TTITLE17=Ricochet - Daddy's Money
TTITLE18=Ronan Hardiman - The Lord Of The Dance
TTITLE19=Ronan Hardiman - Cry Of The Celts
EXTD=
EXTT0=
EXTT1=
EXTT2=
EXTT3=
EXTT4=
EXTT5=
EXTT6=
EXTT7=
EXTT8=
EXTT9=
EXTT10=
EXTT11=
EXTT12=
EXTT13=
EXTT14=
EXTT15=
EXTT16=
EXTT17=
EXTT18=
EXTT19=
PLAYORDER=
